<?xml version="1.0" encoding="utf-8"?>
<!-- Generator: Adobe Illustrator 19.0.0, SVG Export Plug-In . SVG Version: 6.00 Build 0)  -->
<svg version="1.1" id="Layer_1" xmlns="http://www.w3.org/2000/svg" xmlns:xlink="http://www.w3.org/1999/xlink" x="0px" y="0px"
	 viewBox="0 0 33 25" style="enable-background:new 0 0 33 25;" xml:space="preserve">
<style type="text/css">
	.st0{fill:#1B63AA;}
</style>
<g id="XMLID_2_">
	<path id="XMLID_4_" class="st0" d="M0.1,15.4c0.4-1.6,1.4-2.7,2.5-3.7C5,9.3,7.4,6.8,9.7,4.4c2.2-2.2,5.1-2.2,7.3,0
		c1.1,1.1,2.2,2.2,3.2,3.3c1.9,1.9,1.9,5,0,6.9c-0.8-0.6-1.7-1.3-2.5-2c-0.1-0.1-0.1-0.3-0.1-0.4c0.4-1.4,0-2.6-1-3.6
		c-0.3-0.3-0.6-0.6-1-1c-1.3-1.2-3.2-1.3-4.5,0C9.1,9.7,7,11.8,4.9,14c-1.2,1.2-1.2,3.1-0.1,4.4c0.5,0.6,1,1.2,1.6,1.7
		c1.1,1.1,2.2,1.2,3.5,0.4c0.4-0.3,0.8-0.6,1.1-1c0.4-0.5,0.8-1,1.4-1.6c0.4,0.4,0.7,0.8,1.1,1.2c0.4,0.4,0.7,0.8,1.1,1.1
		c-1.1,1.1-2.1,2.4-3.4,3.4c-1.8,1.5-4.4,1.3-6.1-0.3c-1.3-1.2-2.5-2.5-3.7-3.7c-0.7-0.7-1.1-1.7-1.3-2.6
		C0.1,16.4,0.1,15.9,0.1,15.4z"/>
	<path id="XMLID_3_" class="st0" d="M13.8,9.6c0.8,0.8,1.5,1.5,2.2,2.3c0.1,0.1,0.2,0.5,0.1,0.7c-0.6,1.2-0.2,1.7,0.7,2.5
		c0.6,0.5,1.1,1,1.7,1.5c1.4,1.2,3.2,1.2,4.5-0.1c1.9-1.9,3.8-3.9,5.6-5.9c1.2-1.3,1.2-3.2,0-4.5c-0.4-0.4-0.8-0.9-1.3-1.3
		C26,3.6,24,3.7,22.8,5c-0.3,0.3-0.6,0.6-0.9,1c-0.7-0.8-1.4-1.6-2.1-2.4C20.4,3,21,2.2,21.9,1.5c1.9-1.5,4.5-1.4,6.3,0.3
		c1.2,1.1,2.3,2.3,3.4,3.4c1.8,1.9,1.8,5.4-0.1,7.3c-2.4,2.5-4.9,4.9-7.3,7.4c-2.1,2.1-5,2.1-7.1,0c-1.1-1.1-2.2-2.2-3.3-3.4
		c-1.7-1.8-1.8-4.4-0.4-6.4C13.4,9.9,13.6,9.8,13.8,9.6z"/>
</g>
</svg>
