<?xml version="1.0" encoding="utf-8"?>
<!-- Generator: Adobe Illustrator 19.0.0, SVG Export Plug-In . SVG Version: 6.00 Build 0)  -->
<svg version="1.1" id="Layer_1" xmlns="http://www.w3.org/2000/svg" xmlns:xlink="http://www.w3.org/1999/xlink" x="0px" y="0px"
	 viewBox="0 0 83 75" style="enable-background:new 0 0 83 75;" xml:space="preserve">
<style type="text/css">
	.st0{fill:none;stroke:#8D8D8D;stroke-width:2;stroke-miterlimit:10;}
	.st1{fill:#8D8D8D;stroke:#FFFFFF;stroke-miterlimit:10;}
	.st2{fill:#FFFFFF;stroke:#8D8D8D;stroke-width:2;stroke-miterlimit:10;}
	.st3{fill:#1469EB;}
</style>
<g id="XMLID_2_">
	<circle id="XMLID_29_" class="st0" cx="26.4" cy="26.3" r="25"/>
	<g id="XMLID_15_">
		<g id="XMLID_16_">
			<g id="XMLID_41_">
				<path id="XMLID_42_" class="st1" d="M35.5,30.8c0,1.8-0.7,3.4-2,4.6c-1.4,1.2-3.3,1.9-5.9,2.2v4.2h-2.5v-4
					c-3.2-0.1-5.8-0.5-7.8-1.5v-4c1.1,0.5,2.4,1,3.8,1.3c1.5,0.4,2.8,0.6,3.9,0.6V27l-1.6-0.6c-2.1-0.8-3.6-1.8-4.6-2.9
					c-1-1.1-1.4-2.5-1.4-4.1c0-1.8,0.7-3.2,2.1-4.3c1.4-1.1,3.2-1.8,5.6-2.1V9.8h2.5v3.2c2.6,0.1,5,0.6,7.4,1.6L33.6,18
					c-2-0.8-4-1.3-6-1.4v7l1.5,0.6c2.4,0.9,4.1,1.9,5,2.9C35.1,28.1,35.5,29.3,35.5,30.8z M22,19.4c0,0.7,0.2,1.3,0.7,1.8
					c0.5,0.5,1.3,1,2.5,1.4v-5.9c-1,0.2-1.8,0.5-2.3,0.9C22.2,18.1,22,18.7,22,19.4z M31,31.1c0-0.7-0.3-1.3-0.8-1.8
					c-0.5-0.5-1.4-0.9-2.6-1.4V34C29.9,33.7,31,32.7,31,31.1z"/>
			</g>
		</g>
	</g>
	<circle id="XMLID_13_" class="st2" cx="57" cy="48.8" r="25"/>
	<g id="XMLID_7_">
		<g id="XMLID_8_">
			<g id="XMLID_17_">
				<path id="XMLID_18_" class="st1" d="M66.3,57.4c0,0.9,0,1.9,0,2.8c0,0.3-0.4,0.7-0.6,0.7c-3.9,1.1-7.8,1.2-11.7-0.3
					c-2.8-1.2-4.7-3.3-5.6-6.2c-0.4-1.3-1-1.9-2.4-1.6c-0.4,0.1-0.7,0-1.4,0c0.9-1.2,0.4-3.1,2.6-3.2c0-1,0-2.1,0-3.2
					c-0.8,0-1.5-0.1-2.4-0.1c0.4-0.9,0.6-1.8,1-2.5c0.2-0.3,0.8-0.4,1.2-0.4c0.7,0,1-0.3,1.3-0.9c1.9-5.3,5.9-7.6,11.3-7.7
					c1.9,0,3.9,0.3,5.8,0.5c0.7,0.1,1,0.4,1,1.2c-0.1,0.9,0,1.8,0,2.9c-3.5-1.1-7-1.9-10.3,0.2c-1.3,0.8-2.1,2.1-2.7,3.8
					c2,0,3.8,0,5.7,0c1.8,0,3.6,0,5.7,0c-0.4,1-0.7,1.9-1.2,2.7c-0.1,0.2-0.6,0.3-1,0.3c-2.8,0-5.7,0-8.5,0c-0.5,0-0.9,0-1.5,0
					c0,1.1,0,2.2,0,3.3c3.1,0,6.2,0,9.5,0c-0.5,1.1-0.8,2.1-1.2,3.1c-2.5,0-4.9,0-7.6,0c0.6,1.8,1.4,3.4,3,4.2
					c1.5,0.7,3.3,1.2,4.9,1.3C62.8,58.3,64.5,57.7,66.3,57.4z"/>
			</g>
		</g>
	</g>
	
		<rect id="XMLID_6_" x="58.9" y="9.4" transform="matrix(-0.689 0.7248 -0.7248 -0.689 110.8879 -25.3809)" class="st3" width="4.1" height="3.3"/>
	<polygon id="XMLID_5_" class="st3" points="70,19.7 68.7,7.8 65,4.3 66.1,16.1 54.3,15.6 58,19 	"/>
	
		<rect id="XMLID_4_" x="20.9" y="62.5" transform="matrix(0.689 -0.7248 0.7248 0.689 -39.4145 36.5663)" class="st3" width="4.1" height="3.3"/>
	<polygon id="XMLID_3_" class="st3" points="13.8,55.6 15.1,67.5 18.8,71 17.7,59.3 29.5,59.7 25.8,56.3 	"/>
</g>
</svg>
