<?xml version="1.0" encoding="utf-8"?>
<!-- Generator: Adobe Illustrator 19.0.0, SVG Export Plug-In . SVG Version: 6.00 Build 0)  -->
<svg version="1.1" id="Layer_1" xmlns="http://www.w3.org/2000/svg" xmlns:xlink="http://www.w3.org/1999/xlink" x="0px" y="0px"
	 viewBox="0 0 68 80" style="enable-background:new 0 0 68 80;" xml:space="preserve">
<style type="text/css">
	.st0{fill:none;stroke:#8D8D8D;stroke-width:2;stroke-miterlimit:10;}
	.st1{fill:#8D8D8D;}
	.st2{fill:#1469EB;}
	.st3{fill:#FFFFFF;}
</style>
<g>
	<path class="st0" d="M67,4.7c0,23.2,0,46.1,0,69.4c-0.5,0.1-1.1,0.3-1.6,0.3c-9.8,0-19.5,0-29.3,0c-1.9,0-2.5-0.6-2.6-2.5
		c-0.3-4.3-1-8.4-1.4-12.7c-0.2-1.9-1.8-4.1,1.2-5.5c0.6-0.3,0.3-2.1,0.5-3.5c-8.1,0-15.9,0-24.5,0c0,1.2-0.1,2.2,0.2,2.9
		c0.2,0.5,1.8,0.3,2.1,1.4c0.3,1.3-0.5,2.3-0.7,3.6c-0.9,5.3-1.9,10.4-2.9,16c-1.4,0-3.2,0-5.3,0c0-23.1,0-46.1,0-69.4
		c0-0.9,1.9-2.6,2.8-2.6c19.4,0,38.7,0,58.4,0C64.8,2.2,67,3.9,67,4.7z M34.7,41.7C34.7,41.8,34.7,41.8,34.7,41.7
		c6.9,0,13.7,0,20.6,0c4,0,6.2-2.2,6.2-6.1c0-7.3,0-14.6,0-21.9c0-3.8-2.3-6.3-6.2-6.3c-13.7-0.1-27.5-0.1-41.2,0
		c-3.9,0-6.2,2.6-6.3,6.3c0,7.3,0,14.6,0,21.9c0,4,2.2,6.1,6.2,6.1C20.9,41.8,27.8,41.7,34.7,41.7z"/>
	<rect x="41.5" y="50.2" class="st1" width="4.2" height="4.2"/>
	<rect x="54.4" y="50.2" class="st1" width="4.2" height="4.2"/>
	<rect x="54.4" y="55.9" class="st1" width="4.2" height="4.2"/>
	<rect x="47.8" y="55.9" class="st1" width="4.2" height="4.2"/>
	<rect x="41.5" y="55.9" class="st1" width="4.2" height="4.2"/>
	<rect x="41.5" y="61.8" class="st1" width="4.2" height="4.2"/>
	<rect x="47.8" y="61.8" class="st1" width="4.2" height="4.2"/>
	<rect x="54.4" y="61.8" class="st1" width="4.2" height="4.2"/>
	<rect x="47.8" y="50.2" class="st1" width="4.2" height="4.2"/>
	<polygon class="st2" points="12.1,72.7 30.9,72.7 28.5,55.4 14.5,55.4 	"/>
	<rect x="12.1" y="74.5" class="st2" width="18.7" height="1.5"/>
	<rect x="12.1" y="77.4" class="st2" width="18.7" height="1.5"/>
	<g>
		<rect x="20.2" y="66.2" class="st3" width="3" height="2.5"/>
		<polygon class="st3" points="21.7,58.2 27.5,65 27.5,68.6 21.7,62.1 15.9,68.6 15.9,65 		"/>
	</g>
</g>
</svg>
