<?xml version="1.0" encoding="utf-8"?>
<!-- Generator: Adobe Illustrator 19.0.0, SVG Export Plug-In . SVG Version: 6.00 Build 0)  -->
<svg version="1.1" id="Layer_1" xmlns="http://www.w3.org/2000/svg" xmlns:xlink="http://www.w3.org/1999/xlink" x="0px" y="0px"
	 viewBox="0 0 58 73" style="enable-background:new 0 0 58 73;" xml:space="preserve">
<style type="text/css">
	.st0{fill:none;stroke:#8D8D8D;stroke-width:2;stroke-miterlimit:10;}
	.st1{fill:none;stroke:#8D8D8D;stroke-miterlimit:10;}
	.st2{fill:#1B63AA;}
	.st3{fill:#FFFFFF;}
	.st4{fill:none;stroke:#FFFFFF;stroke-width:3;stroke-miterlimit:10;}
</style>
<g id="XMLID_2_">
	<g id="XMLID_8_">
		<path id="XMLID_15_" class="st0" d="M2.1,28.3c0.4,0,0.8,0,1.2,0c0.7,0,1-0.3,1.1-1c0-0.8,0-1.6,0-2.3c0-0.7-0.3-0.9-1-1
			c-0.4,0-0.7,0-1.1,0c0,0,0,0-0.1-0.1c0-0.2,0-0.4,0-0.6c0-4,0-8,0-11.9c0-0.8,0.2-1.5,0.8-2.1c1.9-2.1,3.8-4.3,5.7-6.5
			C9,2.1,9.6,1.9,10.4,1.9c15,0,30.1,0,45.1,0c1,0,1.2,0.2,1.2,1c0,5.9,0,11.8,0,17.7c0,0.2,0,0.4-0.1,0.6c-0.5,0-1,0-1.4,0
			c-0.7,0-1.1,0.3-1.1,1c0,3,0,6,0,8.9c0,0.6,0.4,1,1.1,1c0.4,0,0.9,0,1.4,0c0,0.3,0,0.5,0,0.7c0,12.6,0,25.2,0,37.8
			c0,0.9-0.2,1.1-1.2,1.1c-17.4,0-34.9,0-52.3,0c-1,0-1.2-0.2-1.2-1.1c0-13.9,0-27.7,0-41.6C2,28.7,2,28.5,2.1,28.3z"/>
		<path id="XMLID_14_" class="st1" d="M15,10.8c0,1.7,0,3.3,0,5c0,0.4,0.2,0.6,0.7,0.6c1,0,2,0,3,0c0.5,0,0.7-0.1,0.7-0.6
			c0-3.3,0-6.7,0-10c0-0.4-0.2-0.6-0.7-0.6c-0.9,0-1.9,0-2.8,0C15.2,5.2,15,5.4,15,6C15,7.6,15,9.2,15,10.8z"/>
		<path id="XMLID_13_" class="st1" d="M27.6,10.8c0-1.6,0-3.3,0-4.9c0-0.4-0.2-0.6-0.7-0.6c-1,0-2,0-3,0c-0.5,0-0.7,0.1-0.7,0.6
			c0,3.3,0,6.7,0,10c0,0.4,0.2,0.6,0.7,0.6c0.9,0,1.9,0,2.8,0c0.6,0,0.9-0.1,0.9-0.7C27.6,14.1,27.6,12.4,27.6,10.8z"/>
		<path id="XMLID_12_" class="st1" d="M35.8,10.8C35.8,10.8,35.8,10.8,35.8,10.8c0-1.6,0-3.2,0-4.9c0-0.6-0.2-0.8-0.8-0.8
			c-0.9,0-1.9,0-2.8,0c-0.6,0-0.8,0.2-0.8,0.7c0,3.3,0,6.5,0,9.8c0,0.5,0.2,0.7,0.8,0.7c0.9,0,1.9,0,2.8,0c0.6,0,0.9-0.2,0.9-0.8
			C35.7,14,35.8,12.4,35.8,10.8z"/>
		<path id="XMLID_11_" class="st1" d="M39.5,10.8c0,1.6,0,3.2,0,4.9c0,0.5,0.2,0.7,0.7,0.7c1,0,2,0,3,0c0.5,0,0.7-0.2,0.7-0.6
			c0-3.3,0-6.6,0-9.9c0-0.5-0.2-0.6-0.7-0.6c-1,0-1.9,0-2.9,0c-0.6,0-0.8,0.2-0.8,0.8C39.5,7.6,39.5,9.2,39.5,10.8z"/>
		<path id="XMLID_10_" class="st1" d="M47.7,10.8c0,1.6,0,3.3,0,4.9c0,0.5,0.1,0.7,0.7,0.7c1,0,2,0,3,0c0.5,0,0.7-0.2,0.7-0.6
			c0-3.3,0-6.6,0-9.9c0-0.5-0.2-0.7-0.7-0.6c-1,0-2,0-3,0c-0.5,0-0.7,0.2-0.7,0.7C47.7,7.5,47.7,9.1,47.7,10.8z"/>
		<path id="XMLID_9_" class="st1" d="M11.2,15c0-1.6,0-3.3,0-4.9c0-0.5-0.2-0.7-0.7-0.7c-1,0-2,0-3,0C7,9.4,6.8,9.5,6.8,10
			c0,3.3,0,6.6,0,9.9c0,0.5,0.2,0.7,0.7,0.7c1,0,1.9,0,2.9,0c0.6,0,0.8-0.2,0.8-0.8C11.2,18.2,11.2,16.6,11.2,15z"/>
	</g>
	<path id="XMLID_7_" class="st2" d="M45.2,61.6H15.4c-1.7,0-3-1.3-3-3V40.5c0-1.7,1.3-3,3-3h29.8c1.6,0,3,1.3,3,3v18.1
		C48.2,60.2,46.8,61.6,45.2,61.6z"/>
	<g id="XMLID_4_">
		<rect id="XMLID_6_" x="40.7" y="57.4" class="st3" width="3.7" height="2.4"/>
		<polygon id="XMLID_5_" class="st3" points="42.6,49.4 49.6,56.2 49.6,59.9 42.6,53.4 35.6,59.9 35.6,56.2 		"/>
	</g>
	<circle id="XMLID_3_" class="st4" cx="42.4" cy="57" r="12"/>
</g>
</svg>
