<?xml version="1.0" encoding="utf-8"?>
<!-- Generator: Adobe Illustrator 19.0.0, SVG Export Plug-In . SVG Version: 6.00 Build 0)  -->
<svg version="1.1" id="Layer_1" xmlns="http://www.w3.org/2000/svg" xmlns:xlink="http://www.w3.org/1999/xlink" x="0px" y="0px"
	 viewBox="0 0 66 82" style="enable-background:new 0 0 66 82;" xml:space="preserve">
<style type="text/css">
	.st0{fill:#8D8D8D;}
	.st1{fill:#1B63AA;}
	.st2{fill:#FFFFFF;}
</style>
<g>
	<path class="st0" d="M43.2,27.3c-0.3,0-0.7,0-1,0c-1.5,0.7-3.2,1.2-4.8,1.8c-5.6,2-11.2,4-16.8,6c0,8.5,0,17,0,25.5
		c0.5,2,1.2,4,2.4,5.8c2.4,3.6,5.7,6.2,9.3,8.5c3.1,2,6.5,3.6,9.9,5.1c0.3,0,0.7,0,1,0c0,0,0-0.1,0-0.1c5.3-2.1,10.3-4.8,14.7-8.5
		c3-2.6,5.4-5.5,6.6-9.3c0.2-0.5,0.3-0.8,0.5-1.6c0-8.4,0-16.8,0-25.1C57.7,32.7,43.2,27.4,43.2,27.3z M43,78.2c0,0.2,0-1,0-0.8
		C43,77.2,43,78.5,43,78.2z M62.8,58.6c0,2.6-2.3,6.4-4,8.4c-3.8,4.7-8.9,7.4-14.3,9.8c-0.5,0.2-1,0.4-1.5,0.6c0,0.2,0,0.5,0,0.7
		c0-0.2,0-0.5,0-0.7c-2.4-0.6-4.6-1.8-6.8-3c-3.1-1.7-6.1-3.7-8.6-6.4c-2.5-2.7-4.9-7.2-4.9-10.9c0.1-6,0-13,0-19
		c0-0.8,0.2-1.7,1-1.9c6-2.1,12.9-4.2,18.8-6.4c0.1,0,0.3,0,0.4-0.1c4.1,1.5,8.1,2.9,12.2,4.4c2,0.7,4,1.4,6,2.1
		c0.5,0.2,1.7,0.9,1.7,1.5C62.8,44.4,62.9,52,62.8,58.6z"/>
	<path class="st0" d="M62.9,35.1c0-9.2,0-19.1,0-28.3c0-2.3-1.3-3.6-3.5-3.6c-11.6,0-24.2,0-35.8,0c-0.3,0-0.5,0-0.9,0
		c0,0.4,0,0.7,0,1c0,4.1,0,8.6,0,12.7c0,3.2-1.2,4.4-4.3,4.4c-4,0-8.6,0-12.6,0c-0.3,0-0.6,0-1,0c0,0.3,0,0.6,0,0.9
		c0,19,0,24.2,0,43.2c0,1.3,0.8,2.8,1.9,3.5c0.5,0.3,1.2,0.5,1.8,0.5c6.8,0,10.6,0,17.6,0.2c0.7,0.8,1.6,1.1,2.3,2
		c-0.1,0-10.3,0-19.9,0c-3.2,0-5.7-2.5-5.7-5.7c0-19.4,0-24,0-43.4C2.5,21,3,19.8,4,18.8C9.4,13.4,14.8,7.9,20.2,2.5
		c1-1,2.3-1.3,3.6-1.3c8.6,0,17.2,0,25.9,0c3.3,0,6.5,0,9.8,0c3.4,0,5.5,2.1,5.5,5.6C65,18.8,65,23.9,65,36
		C64.1,35.6,64.1,35.6,62.9,35.1z"/>
	<path class="st1" d="M59.6,40.7c0-0.8-0.2-1-0.8-1.2c-3.2-1.1-6.5-2.4-9.7-3.5c-2-0.7-3.9-1.6-6-2.1c-0.1-0.1-0.3-0.2-0.4-0.1
		c-1.5,0.5-3,1-4.5,1.6c-3.7,1.4-7.4,2.8-11.1,4.1c-0.7,0.2-0.9,0.6-0.9,1.3c0,5.5,0,11.1,0,16.6c0,0.8,0.1,1.6,0.3,2.3
		c0.7,3.2,2.9,5.5,5.2,7.5c2.7,2.4,5.9,4.1,9.3,5.6c0.6,0.3,1.2,0.8,2.1,0.6c5.1-1.9,9.7-4.5,13.4-8.6c2.2-2.4,3.2-5.3,3.1-8.7
		C59.5,51,59.6,45.9,59.6,40.7z"/>
	<rect x="40" y="56.8" class="st2" width="5.6" height="4.4"/>
	<polygon class="st2" points="42.8,42.6 53.6,54.6 53.6,61.2 42.8,49.6 32,61.2 32,54.6 	"/>
	<rect x="29.1" y="9" class="st0" width="28" height="1.3"/>
	<rect x="29.1" y="15" class="st0" width="28" height="1.3"/>
	<rect x="29.1" y="21" class="st0" width="28" height="1.3"/>
	<rect x="8.7" y="30.7" class="st0" width="8.4" height="1.3"/>
	<rect x="8.7" y="36.7" class="st0" width="8.4" height="1.3"/>
	<rect x="8.7" y="42.7" class="st0" width="8.4" height="1.3"/>
	<rect x="8.7" y="42.7" class="st0" width="8.4" height="1.3"/>
	<rect x="8.7" y="48.6" class="st0" width="8.4" height="1.3"/>
	<rect x="8.7" y="54.6" class="st0" width="8.4" height="1.3"/>
</g>
</svg>
