<?xml version="1.0" encoding="utf-8"?>
<!-- Generator: Adobe Illustrator 19.0.0, SVG Export Plug-In . SVG Version: 6.00 Build 0)  -->
<svg version="1.1" id="Layer_1" xmlns="http://www.w3.org/2000/svg" xmlns:xlink="http://www.w3.org/1999/xlink" x="0px" y="0px"
	 viewBox="0 0 17 18" style="enable-background:new 0 0 17 18;" xml:space="preserve">
<style type="text/css">
	.st0{fill:#666666;}
</style>
<g id="XMLID_3_">
	<g id="XMLID_102_">
		<g id="XMLID_103_">
			<path id="XMLID_115_" class="st0" d="M14.3,9.3c0,0.7-0.1,1.3-0.4,2l1.6,0.6c0.3-0.8,0.5-1.7,0.5-2.5V9.3L14.3,9.3z"/>
			<path id="XMLID_114_" class="st0" d="M12.1,2.9C11.4,2.4,10.6,2.1,9.7,2L9.4,3.6c0.7,0.1,1.3,0.3,1.9,0.7L12.1,2.9z"/>
			<path id="XMLID_113_" class="st0" d="M4,5.6L2.7,4.6C2.2,5.3,1.7,6,1.4,6.8L3,7.4C3.2,6.7,3.6,6.2,4,5.6z"/>
			<path id="XMLID_112_" class="st0" d="M15.4,6.7c-0.3-0.8-0.7-1.6-1.3-2.2l-1.3,1.1c0.4,0.5,0.8,1.1,1,1.7L15.4,6.7z"/>
			<path id="XMLID_111_" class="st0" d="M7.4,3.6L7.1,2C6.3,2.2,5.4,2.5,4.7,2.9l0.8,1.4C6.1,4,6.7,3.8,7.4,3.6z"/>
			<path id="XMLID_110_" class="st0" d="M2.7,9.4L1,9.4c0,0.9,0.2,1.7,0.5,2.5L3,11.3C2.8,10.7,2.7,10,2.7,9.4z"/>
			<path id="XMLID_109_" class="st0" d="M11.4,14.3l0.8,1.4c0.7-0.4,1.4-1,2-1.7L12.9,13C12.5,13.6,11.9,14,11.4,14.3z"/>
			<path id="XMLID_108_" class="st0" d="M8.5,15.1c-0.3,0-0.7,0-1-0.1l-0.3,1.7C7.6,16.9,8,17,8.5,17c0,0,0,0,0,0
				c0.4,0,0.9-0.1,1.3-0.2l-0.3-1.7C9.1,15.1,8.8,15.1,8.5,15.1z"/>
			<path id="XMLID_107_" class="st0" d="M2.8,14.1c0.6,0.7,1.2,1.2,2,1.7l0.8-1.4C5,14,4.5,13.6,4,13.1L2.8,14.1z"/>
			<path id="XMLID_104_" class="st0" d="M8.5,3.6c-3.1,0-5.7,2.6-5.7,5.7S5.3,15,8.5,15s5.7-2.6,5.7-5.7S11.6,3.6,8.5,3.6z M8.5,12
				C7,12,5.8,10.8,5.8,9.3S7,6.7,8.5,6.7s2.6,1.2,2.6,2.6S9.9,12,8.5,12z"/>
		</g>
	</g>
</g>
</svg>
