<?xml version="1.0" encoding="utf-8"?>
<!-- Generator: Adobe Illustrator 19.0.0, SVG Export Plug-In . SVG Version: 6.00 Build 0)  -->
<svg version="1.1" id="Layer_1" xmlns="http://www.w3.org/2000/svg" xmlns:xlink="http://www.w3.org/1999/xlink" x="0px" y="0px"
	 viewBox="0 0 23 29" style="enable-background:new 0 0 23 29;" xml:space="preserve">
<style type="text/css">
	.st0{fill:#1469EB;}
</style>
<g id="XMLID_2_">
	<path id="XMLID_4_" class="st0" d="M11.5,9.5c0,1.8,0,3.5,0,5.3c0.6,0,1.1,0.1,1.6,0.1c2.8,0,5.7,0,8.5,0c1,0,1.4,0.3,1.3,1.2
		c-0.1,2-0.1,4.1,0,6.1c0,0.8-0.4,1.1-1.3,1.1c-2.8,0-5.7,0-8.5,0c-0.5,0-1,0-1.6,0c0,1.8,0,3.5,0,5.5c-0.5-0.3-0.8-0.5-1-0.7
		c-3.2-2.7-6.3-5.4-9.5-8.1c-0.6-0.5-0.8-0.9-0.1-1.5c3.3-2.8,6.6-5.7,10-8.6C11,9.7,11.1,9.6,11.5,9.5z"/>
	<path id="XMLID_3_" class="st0" d="M11.6,5.5c0-1.9,0-3.6,0-5.3c0.1-0.1,0.3-0.1,0.4-0.2c1.3,1.2,2.6,2.4,3.9,3.6
		c2,1.8,4.1,3.6,6.2,5.3c0.7,0.6,0.8,1.1,0,1.6c-1.8,1.2-2.9,1.7-2.9,1.7s-4.3,0-5.7,0c0-1.1,0-2,0-3c0-0.9-0.1-1.9-1.3-2.2
		c-1.1-0.4-2,0-2.8,0.7c-2.1,1.8-4.2,3.7-6.4,5.5c-0.4,0.3-0.9,0.7-1.5,0.7c-1,0-1.4-0.2-1.4-1.1c0.1-2,0.1-4,0-6
		c0-1,0.5-1.3,1.5-1.2c2.7,0,5.5,0,8.2,0C10.3,5.5,10.8,5.5,11.6,5.5z"/>
</g>
</svg>
