<?xml version="1.0" encoding="utf-8"?>
<!-- Generator: Adobe Illustrator 19.0.0, SVG Export Plug-In . SVG Version: 6.00 Build 0)  -->
<svg version="1.1" id="Layer_1" xmlns="http://www.w3.org/2000/svg" xmlns:xlink="http://www.w3.org/1999/xlink" x="0px" y="0px"
	 viewBox="0 0 100 22" style="enable-background:new 0 0 100 22;" xml:space="preserve">
<style type="text/css">
	.st0{fill:#1B63AA;}
</style>
<g>
	<path class="st0" d="M10.8,16.8l-0.2-1.2c-1.3,1.2-2.6,1.5-4.3,1.5c-2.1,0-4.1-1.1-4.1-3.4c0-5.2,8.1-2.8,8.1-4.9
		c0-0.8-1-0.9-1.5-0.9c-0.6,0-1.5,0.1-1.6,1.1H2.9c0-2.4,1.7-3.8,6.2-3.8c5.4,0,5.7,2,5.7,4.7v5.3c0,0.7,0,1,0.6,1.5v0.2H10.8z
		 M10.3,11.8c-1.5,0.7-3.4,0.4-3.4,1.8c0,0.6,0.5,1,1.4,1C9.9,14.6,10.4,13.3,10.3,11.8z"/>
	<path class="st0" d="M17.8,5.4h4.1v1.8c1-1.4,2.1-2.1,3.8-2.1c3,0,4.4,1.8,4.4,4.9v6.8h-4.5v-6c0-1.1-0.3-2.1-1.6-2.1
		c-1.4,0-1.8,0.9-1.8,2.3v5.8h-4.5V5.4z"/>
	<path class="st0" d="M38.4,12.4l2-7h4.3L41.1,16c-1.2,3.5-1.7,4.6-5.7,4.6c-0.8,0-1.6-0.1-2-0.1v-3.1c0.3,0,0.6,0,0.9,0
		c1.4,0,1.7-0.4,1.3-1.7L31.9,5.4h4.5L38.4,12.4z"/>
	<path class="st0" d="M44.8,16.8v-4.5h4.6v4.5H44.8z"/>
	<path class="st0" d="M59.7,9.1c-0.5-1.7-1.6-2.7-3.3-2.7c-2.7,0-3.8,2.4-3.8,4.8c0,2.4,1.1,4.7,3.8,4.7c1.9,0,3.1-1.1,3.5-3h1.4
		c-0.5,2.5-2,4.2-4.8,4.2c-3.6,0-5.2-2.6-5.2-5.9c0-3.1,1.8-5.9,5.2-5.9c2.6,0,4.3,1.2,4.7,3.8H59.7z"/>
	<path class="st0" d="M69.5,10.2c0.5,0,1.3-0.2,1.7-0.4s0.5-0.8,0.5-1.2c0-1.3-0.8-2.3-2.8-2.3c-1.8,0-3,0.6-3.3,2.5h-1.3
		c0.2-2.6,2.2-3.7,4.6-3.7c2.3,0,4.1,0.9,4.1,3.5v6.1c0,1,0.3,1.3,1.4,0.9v1c-0.2,0.1-0.7,0.2-1,0.2c-0.2,0-0.4,0-0.6-0.1
		c-0.9-0.1-1-0.9-1-1.7c-1.1,1.2-2.6,1.9-4.2,1.9c-2,0-3.8-1.1-3.8-3.2c0-1.9,1.3-3,3.9-3.4L69.5,10.2z M71.7,10.9
		c-1.1,0.5-2.2,0.5-3.4,0.6c-2,0.2-3.2,0.9-3.2,2.4c0,1.4,1.2,2,2.4,2c2.1,0,4.1-1,4.1-3.3V10.9z"/>
	<path class="st0" d="M77.7,13.3c0.4,1.9,1.4,2.6,3.4,2.6c1.9,0,2.8-1,2.8-2.1c0-3.3-7.2-1-7.2-5.4c0-1.9,1.5-3.2,3.9-3.2
		c2.4,0,4,1,4.3,3.5h-1.3c-0.2-1.7-1.4-2.4-3-2.4c-1.6,0-2.5,0.8-2.5,1.9c0,3.1,7.2,1.1,7.2,5.5c0,2.1-1.9,3.3-4.6,3.3
		s-4.2-1.7-4.3-3.8H77.7z"/>
	<path class="st0" d="M88.4,16.8V1.2h1.3v5.9c1-1.1,2.1-1.9,3.6-1.9c1.4,0,2.6,0.4,3.4,1.6c0.5,0.8,0.6,1.6,0.6,2.6v7.4H96V9.5
		c0-2-0.8-3-2.9-3c-1.6,0-2.7,1-3.1,2.2c-0.3,0.7-0.3,1.3-0.3,2.1v6.1H88.4z"/>
</g>
</svg>
