<?xml version="1.0" encoding="utf-8"?>
<!-- Generator: Adobe Illustrator 19.0.0, SVG Export Plug-In . SVG Version: 6.00 Build 0)  -->
<svg version="1.1" id="Layer_1" xmlns="http://www.w3.org/2000/svg" xmlns:xlink="http://www.w3.org/1999/xlink" x="0px" y="0px"
	 viewBox="0 0 30 30" style="enable-background:new 0 0 30 30;" xml:space="preserve">
<style type="text/css">
	.st0{fill:#B7133F;}
	.st1{fill:#FFFFFF;}
</style>
<g>
	<circle id="XMLID_5_" class="st0" cx="15.5" cy="15.1" r="14"/>
	<path id="XMLID_4_" class="st1" d="M20.2,17.5c0.7-1.6,1.4-3,2-4.5c0.5-1.2,1-2.3,1.6-3.5C24,9.3,24.4,9,24.8,9
		c0.6-0.1,1.3,0,1.9,0c0.2,0,0.4,0.1,0.7,0.1c-0.1,0.2-0.2,0.3-0.2,0.3c-1.5,0.6-1.5,0.6-1.5,2.3c0,2.2,0,4.3,0,6.5
		c0,1.5,0,1.5,1.4,2.1c0.1,0,0.2,0.1,0.3,0.3c-1.7,0.2-3.4,0.2-5.2,0.2c0.2-0.3,0.2-0.4,0.3-0.4c1.5-0.5,1.5-0.5,1.5-2.1
		c0-2.1,0-4.2-0.2-6.3c-1.3,2.9-2.6,5.8-4.1,8.9c-1.4-3.1-2.7-6-4-8.8c-0.1,0-0.1,0-0.2,0c0,0.4,0,0.8,0,1.2c0,1.7,0,3.4,0,5.1
		c0,1.5,0.1,1.6,1.4,2c0.1,0,0.1,0.1,0.4,0.4c-1.5,0-2.8,0-4.1,0c0-0.1,0-0.1-0.1-0.2c0.2-0.1,0.3-0.2,0.5-0.3
		c0.8-0.1,1.1-0.6,1.1-1.4c0-2.6,0-5.2,0-7.8c0-0.8-0.3-1.3-1.1-1.5c-0.2,0-0.3-0.1-0.5-0.2c0-0.1,0-0.2,0-0.3C13.8,9,14.4,9,15,9
		c1-0.2,1.5,0.3,1.9,1.3C18,12.6,19.1,15,20.2,17.5z"/>
	<path id="XMLID_1_" class="st1" d="M3.6,20.5c0.1-0.2,0.2-0.4,0.2-0.4c1.3-0.1,1.5-1.1,1.4-2.2c0-0.5-0.1-1.1,0-1.6
		c0.1-0.8-0.1-1.4-1-1.6c-0.2,0-0.3-0.3-0.5-0.5c0.2,0,0.4-0.1,0.7,0c0.2,0,0.4,0.1,0.7,0.2c0-1.4,0.1-2.7,0-4
		c0-0.3-0.5-0.6-0.8-0.9C4.2,9.4,3.9,9.4,3.7,9.1C3.9,9,4,9,4.1,9c1.7,0,3.4-0.1,5,0c2.2,0.1,3.4,1.8,3,4c-0.3,1.4-1.4,2.4-2.9,2.5
		c-0.7,0.1-1.4,0-2.1,0c0,1.3-0.1,2.5,0,3.6c0,0.3,0.5,0.6,0.8,0.9c0.2,0.1,0.4,0.2,0.7,0.3c0,0.1,0,0.2-0.1,0.2
		C7,20.5,5.4,20.5,3.6,20.5z M7,12.3L7,12.3c0,0.6,0,1.3,0,1.9c0,0.2,0.2,0.5,0.4,0.5c0.9,0.1,1.7-0.1,2.3-0.8
		c0.7-0.9,0.7-1.9,0.4-2.9c-0.3-0.8-0.9-1.3-1.8-1.3C7.1,9.6,7,9.7,7,10.9C7,11.4,7,11.8,7,12.3z"/>
</g>
</svg>
