<?xml version="1.0" encoding="utf-8"?>
<!-- Generator: Adobe Illustrator 19.0.0, SVG Export Plug-In . SVG Version: 6.00 Build 0)  -->
<svg version="1.1" id="Layer_1" xmlns="http://www.w3.org/2000/svg" xmlns:xlink="http://www.w3.org/1999/xlink" x="0px" y="0px"
	 viewBox="0 0 43 35" style="enable-background:new 0 0 43 35;" xml:space="preserve">
<style type="text/css">
	.st0{fill:#3764AC;}
</style>
<polygon id="XMLID_6_" class="st0" points="42.5,8.2 35.1,8.2 35.1,0.8 32.6,0.8 32.6,8.2 25.2,8.3 25.2,10.6 32.6,10.6 32.6,18 
	35.1,18 35.1,10.6 42.5,10.6 42.5,8.2 "/>
<path id="XMLID_2_" class="st0" d="M18.3,19.9c-0.9-0.7-2.7-2.3-2.7-3.2c0-1.1,0.3-1.6,2-2.9c1.7-1.3,2.9-3.2,2.9-5.4
	c0-2.6-1.1-5.1-3.3-5.9h3.2l2.3-1.7c0,0-7.7,0-10.2,0c-4.6,0-8.9,3.5-8.9,7.5c0,4.1,3.1,7.5,7.8,7.5c0.3,0,0.6,0,0.9,0
	c-0.3,0.6-0.5,1.2-0.5,1.9c0,1.1,0.6,2.1,1.4,2.8c-0.6,0-1.2,0-1.8,0c-5.7,0-10,3.6-10,7.4c0,3.7,4.8,6,10.5,6c6.5,0,10-3.7,10-7.4
	C21.9,23.6,21,21.8,18.3,19.9L18.3,19.9z M12.9,14.7L12.9,14.7c-2.6-0.1-5.1-3-5.6-6.4c-0.5-3.5,1.3-6.1,3.9-6.1
	c2.6,0.1,5.1,2.9,5.6,6.3C17.3,12,15.5,14.8,12.9,14.7L12.9,14.7z M11.9,32.3L11.9,32.3c-3.9,0-6.8-2.5-6.8-5.5
	c0-2.9,3.5-5.4,7.4-5.3c0.9,0,1.8,0.2,2.5,0.4c2.1,1.5,3.7,2.3,4.1,4c0.1,0.3,0.1,0.7,0.1,1.1C19.3,30,17.4,32.3,11.9,32.3
	L11.9,32.3z"/>
</svg>
