<?xml version="1.0" encoding="utf-8"?>
<!-- Generator: Adobe Illustrator 19.0.0, SVG Export Plug-In . SVG Version: 6.00 Build 0)  -->
<svg version="1.1" id="Layer_1" xmlns="http://www.w3.org/2000/svg" xmlns:xlink="http://www.w3.org/1999/xlink" x="0px" y="0px"
	 viewBox="0 0 27 33" style="enable-background:new 0 0 27 33;" xml:space="preserve">
<style type="text/css">
	.st0{fill-rule:evenodd;clip-rule:evenodd;fill:#3764AC;}
</style>
<g id="XMLID_2_">
	<path id="XMLID_3_" class="st0" d="M0.8,0.5h14.5c4.8,0,8.8,2.3,8.8,7.1c0,4-1.4,5.5-4.4,7.2c0.3,0.2,1.9,0.7,2.5,1
		c0.9,0.4,1.4,0.9,2,1.5c1.7,1.7,2,3.2,2,5.9c0,6.2-6,9.3-11.7,9.3H0.7L0.8,0.5L0.8,0.5z M8.7,8.9l0,4.2c3.7,0,7.3,0.5,7.3-3.6
		c0-3.8-4-3.1-7.3-3.1L8.7,8.9L8.7,8.9z M8.7,26.6c4.1,0,9.2,0.7,9.2-4c0.1-4.9-5.2-4-9.2-4L8.7,26.6L8.7,26.6z"/>
</g>
</svg>
