<?xml version="1.0" encoding="utf-8"?>
<!-- Generator: Adobe Illustrator 19.0.0, SVG Export Plug-In . SVG Version: 6.00 Build 0)  -->
<svg version="1.1" id="Layer_1" xmlns="http://www.w3.org/2000/svg" xmlns:xlink="http://www.w3.org/1999/xlink" x="0px" y="0px"
	 viewBox="0 0 16 25" style="enable-background:new 0 0 16 25;" xml:space="preserve">
<style type="text/css">
	.st0{fill:#FFFFFF;stroke:#B4B4B4;stroke-width:0.25;stroke-miterlimit:10;}
	.st1{fill:#1B63AA;}
	.st2{fill:#FA0F0C;}
	.st3{fill:#FFFFFF;}
</style>
<g id="XMLID_2_">
	<rect id="XMLID_5_" x="0.5" y="0.3" class="st0" width="15" height="4.2"/>
	<rect id="XMLID_4_" x="0.4" y="4.2" class="st1" width="15.2" height="4"/>
	<rect id="XMLID_3_" x="0.4" y="8.1" class="st2" width="15.2" height="4"/>
</g>
<g id="XMLID_9_">
	<g id="XMLID_71_">
		<rect id="XMLID_72_" x="0.4" y="12.9" class="st2" width="15.2" height="11.9"/>
	</g>
	<g id="XMLID_69_">
		<rect id="XMLID_70_" x="0.4" y="14.3" class="st3" width="15.2" height="1.4"/>
	</g>
	<g id="XMLID_67_">
		<rect id="XMLID_68_" x="0.4" y="17" class="st3" width="15.2" height="1.4"/>
	</g>
	<g id="XMLID_65_">
		<rect id="XMLID_66_" x="0.4" y="19.6" class="st3" width="15.2" height="1.4"/>
	</g>
	<g id="XMLID_63_">
		<rect id="XMLID_64_" x="0.4" y="22.3" class="st3" width="15.2" height="1.4"/>
	</g>
	<rect id="XMLID_62_" x="0.4" y="12.9" class="st1" width="7.6" height="5.5"/>
	<g id="XMLID_55_">
		<g id="XMLID_41_">
			<path id="XMLID_45_" class="st3" d="M2.3,15.2c0.8,0,0.8-1.3,0-1.3C1.5,14,1.5,15.2,2.3,15.2L2.3,15.2z"/>
		</g>
	</g>
	<g id="XMLID_48_">
		<g id="XMLID_35_">
			<path id="XMLID_39_" class="st3" d="M5.7,15.2c0.8,0,0.8-1.3,0-1.3C4.9,14,4.9,15.2,5.7,15.2L5.7,15.2z"/>
		</g>
	</g>
	<g id="XMLID_17_">
		<g id="XMLID_29_">
			<path id="XMLID_33_" class="st3" d="M5.7,17.6c0.8,0,0.8-1.3,0-1.3C4.9,16.4,4.9,17.6,5.7,17.6L5.7,17.6z"/>
		</g>
	</g>
	<g id="XMLID_10_">
		<g id="XMLID_23_">
			<path id="XMLID_27_" class="st3" d="M2.3,17.6c0.8,0,0.8-1.3,0-1.3C1.5,16.4,1.5,17.6,2.3,17.6L2.3,17.6z"/>
		</g>
	</g>
</g>
</svg>
