<?xml version="1.0" encoding="utf-8"?>
<!-- Generator: Adobe Illustrator 19.0.0, SVG Export Plug-In . SVG Version: 6.00 Build 0)  -->
<svg version="1.1" id="Layer_1" xmlns="http://www.w3.org/2000/svg" xmlns:xlink="http://www.w3.org/1999/xlink" x="0px" y="0px"
	 viewBox="0 0 75 380" style="enable-background:new 0 0 75 380;" xml:space="preserve">
<style type="text/css">
	.st0{fill:none;stroke:#8D8D8D;stroke-width:2;stroke-miterlimit:10;}
	.st1{fill:#8D8D8D;}
	.st2{fill:#1D63A2;}
	.st3{fill:#FFFFFF;}
	.st4{fill:#8D8D8D;stroke:#FFFFFF;stroke-miterlimit:10;}
	.st5{fill:#FFFFFF;stroke:#8D8D8D;stroke-width:2;stroke-miterlimit:10;}
	.st6{fill:none;stroke:#8D8D8D;stroke-width:2;stroke-linecap:round;stroke-linejoin:round;stroke-miterlimit:10;}
	.st7{fill:none;stroke:#8D8D8D;stroke-miterlimit:10;}
	.st8{fill:none;stroke:#FFFFFF;stroke-width:3;stroke-miterlimit:10;}
</style>
<g id="XMLID_2_">
	<path id="XMLID_18_" class="st0" d="M69,154.7c0,23.2,0,46.1,0,69.4c-0.5,0.1-1.1,0.3-1.6,0.3c-9.8,0-19.5,0-29.3,0
		c-1.9,0-2.5-0.6-2.6-2.5c-0.3-4.3-1-8.4-1.4-12.7c-0.2-1.9-1.8-4.1,1.2-5.5c0.6-0.3,0.3-2.1,0.5-3.5c-8.1,0-15.9,0-24.5,0
		c0,1.2-0.1,2.2,0.2,2.9c0.2,0.5,1.8,0.3,2.1,1.4c0.3,1.3-0.5,2.3-0.7,3.6c-0.9,5.3-1.9,10.4-2.9,16c-1.4,0-3.2,0-5.3,0
		c0-23.1,0-46.1,0-69.4c0-0.9,1.9-2.6,2.8-2.6c19.4,0,38.7,0,58.4,0C66.8,152.2,69,153.9,69,154.7z M36.7,191.7
		C36.7,191.8,36.7,191.8,36.7,191.7c6.9,0,13.7,0,20.6,0c4,0,6.2-2.2,6.2-6.1c0-7.3,0-14.6,0-21.9c0-3.8-2.3-6.3-6.2-6.3
		c-13.7-0.1-27.5-0.1-41.2,0c-3.9,0-6.2,2.6-6.3,6.3c0,7.3,0,14.6,0,21.9c0,4,2.2,6.1,6.2,6.1C22.9,191.8,29.8,191.7,36.7,191.7z"/>
	<rect id="XMLID_17_" x="43.5" y="200.2" class="st1" width="4.2" height="4.2"/>
	<rect id="XMLID_16_" x="56.4" y="200.2" class="st1" width="4.2" height="4.2"/>
	<rect id="XMLID_15_" x="56.4" y="205.9" class="st1" width="4.2" height="4.2"/>
	<rect id="XMLID_14_" x="49.8" y="205.9" class="st1" width="4.2" height="4.2"/>
	<rect id="XMLID_13_" x="43.5" y="205.9" class="st1" width="4.2" height="4.2"/>
	<rect id="XMLID_12_" x="43.5" y="211.8" class="st1" width="4.2" height="4.2"/>
	<rect id="XMLID_11_" x="49.8" y="211.8" class="st1" width="4.2" height="4.2"/>
	<rect id="XMLID_10_" x="56.4" y="211.8" class="st1" width="4.2" height="4.2"/>
	<rect id="XMLID_9_" x="49.8" y="200.2" class="st1" width="4.2" height="4.2"/>
	<polygon id="XMLID_8_" class="st2" points="14.1,222.7 32.9,222.7 30.5,205.4 16.5,205.4 	"/>
	<rect id="XMLID_7_" x="14.1" y="224.5" class="st2" width="18.7" height="1.5"/>
	<rect id="XMLID_6_" x="14.1" y="227.4" class="st2" width="18.7" height="1.5"/>
	<g id="XMLID_3_">
		<rect id="XMLID_5_" x="22.2" y="216.2" class="st3" width="3" height="2.5"/>
		<polygon id="XMLID_4_" class="st3" points="23.7,208.2 29.5,215 29.5,218.6 23.7,212.1 17.9,218.6 17.9,215 		"/>
	</g>
</g>
<g id="XMLID_1_">
	<ellipse id="XMLID_32_" class="st0" cx="24.1" cy="24.8" rx="22.4" ry="22.5"/>
	<g id="XMLID_30_">
		<g id="XMLID_31_">
			<g id="XMLID_41_">
				<path id="XMLID_42_" class="st4" d="M32.3,28.9c0,1.6-0.6,3.1-1.8,4.1c-1.3,1.1-3,1.7-5.3,2v3.8H23v-3.6c-2.9-0.1-5.2-0.5-7-1.4
					v-3.6c1,0.5,2.2,0.9,3.4,1.2c1.3,0.4,2.5,0.5,3.5,0.5v-6.5l-1.4-0.5c-1.9-0.7-3.2-1.6-4.1-2.6s-1.3-2.3-1.3-3.7
					c0-1.6,0.6-2.9,1.9-3.9s2.9-1.6,5-1.9V10h2.2v2.9c2.3,0.1,4.5,0.5,6.6,1.4l-1.3,3.1c-1.8-0.7-3.6-1.2-5.4-1.3v6.3l1.3,0.5
					c2.2,0.8,3.7,1.7,4.5,2.6C31.9,26.4,32.3,27.5,32.3,28.9z M20.2,18.6c0,0.6,0.2,1.2,0.6,1.6s1.2,0.9,2.2,1.3v-5.3
					c-0.9,0.2-1.6,0.5-2.1,0.8C20.4,17.4,20.2,18,20.2,18.6z M28.3,29.1c0-0.6-0.3-1.2-0.7-1.6s-1.3-0.8-2.3-1.3v5.5
					C27.3,31.5,28.3,30.6,28.3,29.1z"/>
			</g>
		</g>
	</g>
	<ellipse id="XMLID_29_" class="st5" cx="51.6" cy="45.1" rx="22.4" ry="22.5"/>
	<g id="XMLID_25_">
		<g id="XMLID_26_">
			<g id="XMLID_27_">
				<path id="XMLID_28_" class="st4" d="M59.9,52.8c0,0.8,0,1.7,0,2.5c0,0.3-0.4,0.6-0.5,0.6c-3.5,1-7,1.1-10.5-0.3
					c-2.5-1.1-4.2-3-5-5.6c-0.4-1.2-0.9-1.7-2.2-1.4c-0.4,0.1-0.6,0-1.3,0c0.8-1.1,0.4-2.8,2.3-2.9c0-0.9,0-1.9,0-2.9
					c-0.7,0-1.3-0.1-2.2-0.1c0.4-0.8,0.5-1.6,0.9-2.3c0.2-0.3,0.7-0.4,1.1-0.4c0.6,0,0.9-0.3,1.2-0.8c1.7-4.8,5.3-6.8,10.1-6.9
					c1.7,0,3.5,0.3,5.2,0.5C59.7,33,60,33.3,60,34c-0.1,0.8,0,1.6,0,2.6c-3.1-1-6.3-1.7-9.2,0.2c-1.2,0.7-1.9,1.9-2.4,3.4
					c1.8,0,3.4,0,5.1,0c1.6,0,3.2,0,5.1,0c-0.4,0.9-0.6,1.7-1.1,2.4c-0.1,0.2-0.5,0.3-0.9,0.3c-2.5,0-5.1,0-7.6,0
					c-0.4,0-0.8,0-1.3,0c0,1,0,2,0,3c2.8,0,5.6,0,8.5,0c-0.4,1-0.7,1.9-1.1,2.8c-2.2,0-4.4,0-6.8,0c0.5,1.6,1.3,3.1,2.7,3.8
					c1.3,0.6,3,1.1,4.4,1.2C56.8,53.6,58.3,53.1,59.9,52.8z"/>
			</g>
		</g>
	</g>
	<polygon id="XMLID_24_" class="st2" points="57.4,10.9 54.9,13.6 52.7,11.5 55.3,8.8 	"/>
	<polygon id="XMLID_23_" class="st2" points="63.2,18.9 62.1,8.2 58.8,5 59.7,15.6 49.2,15.2 52.5,18.2 	"/>
	<polygon id="XMLID_22_" class="st2" points="18.6,59.2 21.2,56.5 23.3,58.5 20.8,61.2 	"/>
	<polygon id="XMLID_21_" class="st2" points="12.8,51.2 14,61.9 17.3,65 16.3,54.5 26.9,54.9 23.6,51.8 	"/>
</g>
<g id="XMLID_37_">
	<path id="XMLID_53_" class="st1" d="M46.2,97.3c-0.3,0-0.7,0-1,0c-1.5,0.7-3.2,1.2-4.8,1.8c-5.6,2-11.2,4-16.8,6c0,8.5,0,17,0,25.5
		c0.5,2,1.2,4,2.4,5.8c2.4,3.6,5.7,6.2,9.3,8.5c3.1,2,6.5,3.6,9.9,5.1c0.3,0,0.7,0,1,0v-0.1c5.3-2.1,10.3-4.8,14.7-8.5
		c3-2.6,5.4-5.5,6.6-9.3c0.2-0.5,0.3-0.8,0.5-1.6c0-8.4,0-16.8,0-25.1C60.7,102.7,46.2,97.4,46.2,97.3z M46,148.2c0,0.2,0-1,0-0.8
		C46,147.2,46,148.5,46,148.2z M65.8,128.6c0,2.6-2.3,6.4-4,8.4c-3.8,4.7-8.9,7.4-14.3,9.8c-0.5,0.2-1,0.4-1.5,0.6
		c0,0.2,0,0.5,0,0.7c0-0.2,0-0.5,0-0.7c-2.4-0.6-4.6-1.8-6.8-3c-3.1-1.7-6.1-3.7-8.6-6.4c-2.5-2.7-4.9-7.2-4.9-10.9c0.1-6,0-13,0-19
		c0-0.8,0.2-1.7,1-1.9c6-2.1,12.9-4.2,18.8-6.4c0.1,0,0.3,0,0.4-0.1c4.1,1.5,8.1,2.9,12.2,4.4c2,0.7,4,1.4,6,2.1
		c0.5,0.2,1.7,0.9,1.7,1.5C65.8,114.4,65.9,122,65.8,128.6z"/>
	<path id="XMLID_52_" class="st1" d="M65.9,105.1c0-9.2,0-19.1,0-28.3c0-2.3-1.3-3.6-3.5-3.6c-11.6,0-24.2,0-35.8,0
		c-0.3,0-0.5,0-0.9,0c0,0.4,0,0.7,0,1c0,4.1,0,8.6,0,12.7c0,3.2-1.2,4.4-4.3,4.4c-4,0-8.6,0-12.6,0c-0.3,0-0.6,0-1,0
		c0,0.3,0,0.6,0,0.9c0,19,0,24.2,0,43.2c0,1.3,0.8,2.8,1.9,3.5c0.5,0.3,1.2,0.5,1.8,0.5c6.8,0,10.6,0,17.6,0.2
		c0.7,0.8,1.6,1.1,2.3,2c-0.1,0-10.3,0-19.9,0c-3.2,0-5.7-2.5-5.7-5.7c0-19.4,0-24,0-43.4C5.5,91,6,89.8,7,88.8
		c5.4-5.4,10.8-10.9,16.2-16.3c1-1,2.3-1.3,3.6-1.3c8.6,0,17.2,0,25.9,0c3.3,0,6.5,0,9.8,0c3.4,0,5.5,2.1,5.5,5.6
		c0,12,0,17.1,0,29.2C67.1,105.6,67.1,105.6,65.9,105.1z"/>
	<path id="XMLID_51_" class="st2" d="M62.6,110.7c0-0.8-0.2-1-0.8-1.2c-3.2-1.1-6.5-2.4-9.7-3.5c-2-0.7-3.9-1.6-6-2.1
		c-0.1-0.1-0.3-0.2-0.4-0.1c-1.5,0.5-3,1-4.5,1.6c-3.7,1.4-7.4,2.8-11.1,4.1c-0.7,0.2-0.9,0.6-0.9,1.3c0,5.5,0,11.1,0,16.6
		c0,0.8,0.1,1.6,0.3,2.3c0.7,3.2,2.9,5.5,5.2,7.5c2.7,2.4,5.9,4.1,9.3,5.6c0.6,0.3,1.2,0.8,2.1,0.6c5.1-1.9,9.7-4.5,13.4-8.6
		c2.2-2.4,3.2-5.3,3.1-8.7C62.5,121,62.6,115.9,62.6,110.7z"/>
	<rect id="XMLID_50_" x="43" y="126.8" class="st3" width="5.6" height="4.4"/>
	<polygon id="XMLID_49_" class="st3" points="45.8,112.6 56.6,124.6 56.6,131.2 45.8,119.6 35,131.2 35,124.6 	"/>
	<rect id="XMLID_48_" x="32.1" y="79" class="st1" width="28" height="1.3"/>
	<rect id="XMLID_47_" x="32.1" y="85" class="st1" width="28" height="1.3"/>
	<rect id="XMLID_46_" x="32.1" y="91" class="st1" width="28" height="1.3"/>
	<rect id="XMLID_45_" x="11.7" y="100.7" class="st1" width="8.4" height="1.3"/>
	<rect id="XMLID_44_" x="11.7" y="106.7" class="st1" width="8.4" height="1.3"/>
	<rect id="XMLID_43_" x="11.7" y="112.7" class="st1" width="8.4" height="1.3"/>
	<rect id="XMLID_40_" x="11.7" y="112.7" class="st1" width="8.4" height="1.3"/>
	<rect id="XMLID_39_" x="11.7" y="118.6" class="st1" width="8.4" height="1.3"/>
	<rect id="XMLID_38_" x="11.7" y="124.6" class="st1" width="8.4" height="1.3"/>
</g>
<g id="XMLID_36_">
	<rect id="XMLID_68_" x="3.7" y="300.3" class="st0" width="69" height="4.3"/>
	<rect id="XMLID_67_" x="3.7" y="256.8" class="st0" width="69" height="4.3"/>
	<rect id="XMLID_66_" x="9.4" y="265.6" class="st0" width="9" height="30.3"/>
	<rect id="XMLID_65_" x="58.3" y="265.6" class="st0" width="9" height="30.3"/>
	<rect id="XMLID_64_" x="42.2" y="265.6" class="st0" width="9" height="30.3"/>
	<rect id="XMLID_63_" x="25.7" y="265.6" class="st0" width="9" height="30.3"/>
	<polygon id="XMLID_62_" class="st6" points="38.3,231.6 72.7,252.9 3.7,252.9 	"/>
	<polygon id="XMLID_61_" class="st2" points="31.5,242.9 44.6,242.9 44.6,267.3 38.1,262.1 31.5,267.3 	"/>
	<g id="XMLID_57_">
		<g id="XMLID_58_">
			<rect id="XMLID_60_" x="36.7" y="253.8" class="st3" width="2.7" height="2.3"/>
			<polygon id="XMLID_59_" class="st3" points="38.1,246.4 43.3,252.7 43.3,256.1 38.1,250 32.8,256.1 32.8,252.7 			"/>
		</g>
	</g>
</g>
<g id="XMLID_69_">
	<g id="XMLID_75_">
		<path id="XMLID_82_" class="st0" d="M10.1,335.3c0.4,0,0.8,0,1.2,0c0.7,0,1-0.3,1.1-1c0-0.8,0-1.6,0-2.3s-0.3-0.9-1-1
			c-0.4,0-0.7,0-1.1,0c0,0,0,0-0.1-0.1c0-0.2,0-0.4,0-0.6c0-4,0-8,0-11.9c0-0.8,0.2-1.5,0.8-2.1c1.9-2.1,3.8-4.3,5.7-6.5
			c0.3-0.7,0.9-0.9,1.7-0.9c15,0,30.1,0,45.1,0c1,0,1.2,0.2,1.2,1c0,5.9,0,11.8,0,17.7c0,0.2,0,0.4-0.1,0.6c-0.5,0-1,0-1.4,0
			c-0.7,0-1.1,0.3-1.1,1c0,3,0,6,0,8.9c0,0.6,0.4,1,1.1,1c0.4,0,0.9,0,1.4,0c0,0.3,0,0.5,0,0.7c0,12.6,0,25.2,0,37.8
			c0,0.9-0.2,1.1-1.2,1.1c-17.4,0-34.9,0-52.3,0c-1,0-1.2-0.2-1.2-1.1c0-13.9,0-27.7,0-41.6C10,335.7,10,335.5,10.1,335.3z"/>
		<path id="XMLID_81_" class="st7" d="M23,317.8c0,1.7,0,3.3,0,5c0,0.4,0.2,0.6,0.7,0.6c1,0,2,0,3,0c0.5,0,0.7-0.1,0.7-0.6
			c0-3.3,0-6.7,0-10c0-0.4-0.2-0.6-0.7-0.6c-0.9,0-1.9,0-2.8,0c-0.7,0-0.9,0.2-0.9,0.8C23,314.6,23,316.2,23,317.8z"/>
		<path id="XMLID_80_" class="st7" d="M35.6,317.8c0-1.6,0-3.3,0-4.9c0-0.4-0.2-0.6-0.7-0.6c-1,0-2,0-3,0c-0.5,0-0.7,0.1-0.7,0.6
			c0,3.3,0,6.7,0,10c0,0.4,0.2,0.6,0.7,0.6c0.9,0,1.9,0,2.8,0c0.6,0,0.9-0.1,0.9-0.7C35.6,321.1,35.6,319.4,35.6,317.8z"/>
		<path id="XMLID_79_" class="st7" d="M43.8,317.8L43.8,317.8c0-1.6,0-3.2,0-4.9c0-0.6-0.2-0.8-0.8-0.8c-0.9,0-1.9,0-2.8,0
			c-0.6,0-0.8,0.2-0.8,0.7c0,3.3,0,6.5,0,9.8c0,0.5,0.2,0.7,0.8,0.7c0.9,0,1.9,0,2.8,0c0.6,0,0.9-0.2,0.9-0.8
			C43.7,321,43.8,319.4,43.8,317.8z"/>
		<path id="XMLID_78_" class="st7" d="M47.5,317.8c0,1.6,0,3.2,0,4.9c0,0.5,0.2,0.7,0.7,0.7c1,0,2,0,3,0c0.5,0,0.7-0.2,0.7-0.6
			c0-3.3,0-6.6,0-9.9c0-0.5-0.2-0.6-0.7-0.6c-1,0-1.9,0-2.9,0c-0.6,0-0.8,0.2-0.8,0.8C47.5,314.6,47.5,316.2,47.5,317.8z"/>
		<path id="XMLID_77_" class="st7" d="M55.7,317.8c0,1.6,0,3.3,0,4.9c0,0.5,0.1,0.7,0.7,0.7c1,0,2,0,3,0c0.5,0,0.7-0.2,0.7-0.6
			c0-3.3,0-6.6,0-9.9c0-0.5-0.2-0.7-0.7-0.6c-1,0-2,0-3,0c-0.5,0-0.7,0.2-0.7,0.7C55.7,314.5,55.7,316.1,55.7,317.8z"/>
		<path id="XMLID_76_" class="st7" d="M19.2,322c0-1.6,0-3.3,0-4.9c0-0.5-0.2-0.7-0.7-0.7c-1,0-2,0-3,0c-0.5,0-0.7,0.1-0.7,0.6
			c0,3.3,0,6.6,0,9.9c0,0.5,0.2,0.7,0.7,0.7c1,0,1.9,0,2.9,0c0.6,0,0.8-0.2,0.8-0.8C19.2,325.2,19.2,323.6,19.2,322z"/>
	</g>
	<path id="XMLID_74_" class="st2" d="M53.2,368.6H23.4c-1.7,0-3-1.3-3-3v-18.1c0-1.7,1.3-3,3-3h29.8c1.6,0,3,1.3,3,3v18.1
		C56.2,367.2,54.8,368.6,53.2,368.6z"/>
	<g id="XMLID_71_">
		<rect id="XMLID_73_" x="48.7" y="364.4" class="st3" width="3.7" height="2.4"/>
		<polygon id="XMLID_72_" class="st3" points="50.6,356.4 57.6,363.2 57.6,366.9 50.6,360.4 43.6,366.9 43.6,363.2 		"/>
	</g>
	<circle id="XMLID_70_" class="st8" cx="50.4" cy="364" r="12"/>
</g>
</svg>
