<?xml version="1.0" encoding="utf-8"?>
<!-- Generator: Adobe Illustrator 19.0.0, SVG Export Plug-In . SVG Version: 6.00 Build 0)  -->
<svg version="1.1" id="Layer_1" xmlns="http://www.w3.org/2000/svg" xmlns:xlink="http://www.w3.org/1999/xlink" x="0px" y="0px"
	 viewBox="0 0 34 130" style="enable-background:new 0 0 34 130;" xml:space="preserve">
<style type="text/css">
	.st0{fill:#1D63A2;}
</style>
<g id="XMLID_2_">
	<path id="XMLID_4_" class="st0" d="M16.5,10.5c0,1.8,0,3.5,0,5.3c0.6,0,1.1,0.1,1.6,0.1c2.8,0,5.7,0,8.5,0c1,0,1.4,0.3,1.3,1.2
		c-0.1,2-0.1,4.1,0,6.1c0,0.8-0.4,1.1-1.3,1.1c-2.8,0-5.7,0-8.5,0c-0.5,0-1,0-1.6,0c0,1.8,0,3.5,0,5.5c-0.5-0.3-0.8-0.5-1-0.7
		C12.3,26.4,9.2,23.7,6,21c-0.6-0.5-0.8-0.9-0.1-1.5c3.3-2.8,6.6-5.7,10-8.6C16,10.7,16.1,10.6,16.5,10.5z"/>
	<path id="XMLID_3_" class="st0" d="M16.6,6.5c0-1.9,0-3.6,0-5.3C16.7,1.1,16.9,1.1,17,1c1.3,1.2,2.6,2.4,3.9,3.6
		c2,1.8,4.1,3.6,6.2,5.3c0.7,0.6,0.8,1.1,0,1.6c-1.8,1.2-2.9,1.7-2.9,1.7s-4.3,0-5.7,0c0-1.1,0-2,0-3c0-0.9-0.1-1.9-1.3-2.2
		c-1.1-0.4-2,0-2.8,0.7c-2.1,1.8-4.2,3.7-6.4,5.5c-0.4,0.3-0.9,0.7-1.5,0.7c-1,0-1.4-0.2-1.4-1.1c0.1-2,0.1-4,0-6
		c0-1,0.5-1.3,1.5-1.2c2.7,0,5.5,0,8.2,0C15.3,6.5,15.8,6.5,16.6,6.5z"/>
</g>
<g id="XMLID_1_">
	<path id="XMLID_6_" class="st0" d="M0.6,58.4C1,56.8,2,55.7,3.1,54.7c2.4-2.4,4.8-4.9,7.1-7.3c2.2-2.2,5.1-2.2,7.3,0
		c1.1,1.1,2.2,2.2,3.2,3.3c1.9,1.9,1.9,5,0,6.9c-0.8-0.6-1.7-1.3-2.5-2c-0.1-0.1-0.1-0.3-0.1-0.4c0.4-1.4,0-2.6-1-3.6
		c-0.3-0.3-0.6-0.6-1-1c-1.3-1.2-3.2-1.3-4.5,0c-2,2.1-4.1,4.2-6.2,6.4c-1.2,1.2-1.2,3.1-0.1,4.4c0.5,0.6,1,1.2,1.6,1.7
		c1.1,1.1,2.2,1.2,3.5,0.4c0.4-0.3,0.8-0.6,1.1-1c0.4-0.5,0.8-1,1.4-1.6c0.4,0.4,0.7,0.8,1.1,1.2c0.4,0.4,0.7,0.8,1.1,1.1
		c-1.1,1.1-2.1,2.4-3.4,3.4c-1.8,1.5-4.4,1.3-6.1-0.3c-1.3-1.2-2.5-2.5-3.7-3.7c-0.7-0.7-1.1-1.7-1.3-2.6
		C0.6,59.4,0.6,58.9,0.6,58.4z"/>
	<path id="XMLID_5_" class="st0" d="M14.3,52.6c0.8,0.8,1.5,1.5,2.2,2.3c0.1,0.1,0.2,0.5,0.1,0.7c-0.6,1.2-0.2,1.7,0.7,2.5
		c0.6,0.5,1.1,1,1.7,1.5c1.4,1.2,3.2,1.2,4.5-0.1c1.9-1.9,3.8-3.9,5.6-5.9c1.2-1.3,1.2-3.2,0-4.5c-0.4-0.4-0.8-0.9-1.3-1.3
		c-1.3-1.2-3.3-1.1-4.5,0.2c-0.3,0.3-0.6,0.6-0.9,1c-0.7-0.8-1.4-1.6-2.1-2.4c0.6-0.6,1.2-1.4,2.1-2.1c1.9-1.5,4.5-1.4,6.3,0.3
		c1.2,1.1,2.3,2.3,3.4,3.4c1.8,1.9,1.8,5.4-0.1,7.3c-2.4,2.5-4.9,4.9-7.3,7.4c-2.1,2.1-5,2.1-7.1,0c-1.1-1.1-2.2-2.2-3.3-3.4
		c-1.7-1.8-1.8-4.4-0.4-6.4C13.9,52.9,14.1,52.8,14.3,52.6z"/>
</g>
<g id="XMLID_7_">
	<polygon id="XMLID_17_" class="st0" points="31.6,92.5 22.7,100.1 16.4,96.3 	"/>
	<polygon id="XMLID_16_" class="st0" points="31.6,92.5 16.4,96.3 20.4,92.2 	"/>
	<polygon id="XMLID_15_" class="st0" points="22.7,100.1 25.8,111.5 16.4,96.3 	"/>
	<polygon id="XMLID_14_" class="st0" points="16.4,96.3 25.8,111.5 16.4,104.9 	"/>
	<polygon id="XMLID_13_" class="st0" points="16.4,81.1 20.4,92.2 16.4,96.3 	"/>
	<polygon id="XMLID_12_" class="st0" points="16.4,96.3 16.4,104.9 7,111.5 	"/>
	<polygon id="XMLID_11_" class="st0" points="16.4,81.1 16.4,96.3 12.4,92.2 	"/>
	<polygon id="XMLID_10_" class="st0" points="16.4,96.3 7,111.5 10.1,100.1 	"/>
	<polygon id="XMLID_9_" class="st0" points="16.4,96.3 10.1,100.1 1.2,92.5 	"/>
	<polygon id="XMLID_8_" class="st0" points="16.4,96.3 1.2,92.5 12.4,92.2 	"/>
</g>
</svg>
