<?xml version="1.0" encoding="utf-8"?>
<!-- Generator: Adobe Illustrator 19.0.0, SVG Export Plug-In . SVG Version: 6.00 Build 0)  -->
<svg version="1.1" id="Layer_1" xmlns="http://www.w3.org/2000/svg" xmlns:xlink="http://www.w3.org/1999/xlink" x="0px" y="0px"
	 viewBox="0 0 31 31" style="enable-background:new 0 0 31 31;" xml:space="preserve">
<style type="text/css">
	.st0{fill:#1469EB;}
</style>
<g id="XMLID_2_">
	<polygon id="XMLID_12_" class="st0" points="30.7,11.4 21.8,19 15.5,15.2 	"/>
	<polygon id="XMLID_11_" class="st0" points="30.7,11.4 15.5,15.2 19.5,11.1 	"/>
	<polygon id="XMLID_10_" class="st0" points="21.8,19 24.9,30.4 15.5,15.2 	"/>
	<polygon id="XMLID_9_" class="st0" points="15.5,15.2 24.9,30.4 15.5,23.8 	"/>
	<polygon id="XMLID_8_" class="st0" points="15.5,0 19.5,11.1 15.5,15.2 	"/>
	<polygon id="XMLID_7_" class="st0" points="15.5,15.2 15.5,23.8 6.1,30.4 	"/>
	<polygon id="XMLID_6_" class="st0" points="15.5,0 15.5,15.2 11.5,11.1 	"/>
	<polygon id="XMLID_5_" class="st0" points="15.5,15.2 6.1,30.4 9.2,19 	"/>
	<polygon id="XMLID_4_" class="st0" points="15.5,15.2 9.2,19 0.3,11.4 	"/>
	<polygon id="XMLID_3_" class="st0" points="15.5,15.2 0.3,11.4 11.5,11.1 	"/>
</g>
</svg>
